<?xml version="1.0" encoding="utf-8"?>
<!-- Generator: Adobe Illustrator 25.0.0, SVG Export Plug-In . SVG Version: 6.00 Build 0)  -->
<svg version="1.1" id="Layer_1" xmlns="http://www.w3.org/2000/svg" xmlns:xlink="http://www.w3.org/1999/xlink" x="0px" y="0px"
	 viewBox="0 0 43.52 10.34" style="enable-background:new 0 0 43.52 10.34;" xml:space="preserve">
<style type="text/css">
	.st0{fill:#F26857;}
	.st1{fill:#2A4150;}
	.st2{font-family:'Poppins';}
	.st3{font-size:5.3282px;}
</style>
<g>
	<path class="st0" d="M7.34,5.81H2.12c-0.36,0-0.64-0.29-0.64-0.64v0c0-0.36,0.29-0.64,0.64-0.64h5.22c0.36,0,0.64,0.29,0.64,0.64v0
		C7.98,5.52,7.69,5.81,7.34,5.81z"/>
	<g>
		<path class="st0" d="M7.34,1.29H2.12C1.76,1.29,1.47,1,1.47,0.64v0C1.47,0.29,1.76,0,2.12,0l5.22,0c0.36,0,0.64,0.29,0.64,0.64v0
			C7.98,1,7.69,1.29,7.34,1.29z"/>
		<path class="st0" d="M8.81,1.29L8.81,1.29C8.46,1.29,8.17,1,8.17,0.64v0C8.17,0.29,8.46,0,8.81,0h0c0.36,0,0.64,0.29,0.64,0.64v0
			C9.46,1,9.17,1.29,8.81,1.29z"/>
	</g>
	<g>
		<path class="st0" d="M2.12,9.05h5.22c0.36,0,0.64,0.29,0.64,0.64v0c0,0.36-0.29,0.64-0.64,0.64H2.12c-0.36,0-0.64-0.29-0.64-0.64
			v0C1.47,9.34,1.76,9.05,2.12,9.05z"/>
		<path class="st0" d="M0.64,9.05L0.64,9.05C1,9.05,1.29,9.34,1.29,9.7v0c0,0.36-0.29,0.64-0.64,0.64h0C0.29,10.34,0,10.05,0,9.7v0
			C0,9.34,0.29,9.05,0.64,9.05z"/>
	</g>
	<g>
		<path class="st0" d="M3.56,3.55H0.64C0.29,3.55,0,3.26,0,2.91v0c0-0.36,0.29-0.64,0.64-0.64h2.92c0.36,0,0.64,0.29,0.64,0.64v0
			C4.21,3.26,3.92,3.55,3.56,3.55z"/>
		<path class="st0" d="M5.09,3.55L5.09,3.55c-0.36,0-0.64-0.29-0.64-0.64v0c0-0.36,0.29-0.64,0.64-0.64h0
			c0.36,0,0.64,0.29,0.64,0.64v0C5.73,3.26,5.44,3.55,5.09,3.55z"/>
	</g>
	<g>
		<path class="st0" d="M5.89,6.79h2.92c0.36,0,0.64,0.29,0.64,0.64v0c0,0.36-0.29,0.64-0.64,0.64H5.89c-0.36,0-0.64-0.29-0.64-0.64
			v0C5.25,7.08,5.54,6.79,5.89,6.79z"/>
		<path class="st0" d="M4.37,6.79L4.37,6.79c0.36,0,0.64,0.29,0.64,0.64v0c0,0.36-0.29,0.64-0.64,0.64h0
			c-0.36,0-0.64-0.29-0.64-0.64v0C3.72,7.08,4.01,6.79,4.37,6.79z"/>
	</g>
</g>
<text transform="matrix(1 0 0 1 11.6591 6.9075)" class="st1 st2 st3">smartcodes</text>
</svg>
